<svg width="15" height="15" fill="none" xmlns="http://www.w3.org/2000/svg"><path d="M11.855 9.292c-.308-.32-.678-.491-1.07-.491-.39 0-.764.168-1.083.487l-1 .998c-.083-.045-.165-.086-.244-.127-.114-.057-.222-.11-.314-.168-.937-.595-1.789-1.37-2.605-2.374-.396-.5-.662-.921-.855-1.349.26-.237.5-.484.734-.722.089-.088.178-.18.266-.269.665-.665.665-1.526 0-2.19l-.864-.865c-.098-.098-.2-.2-.294-.3-.19-.197-.39-.4-.596-.59-.307-.303-.674-.465-1.06-.465s-.76.162-1.077.466l-.006.006L.711 2.425a2.313 2.313 0 0 0-.687 1.472c-.076.924.196 1.785.405 2.349.513 1.383 1.279 2.666 2.422 4.04a14.898 14.898 0 0 0 4.96 3.884c.729.345 1.7.754 2.787.823.066.003.136.007.2.007.73 0 1.345-.263 1.826-.786.003-.006.01-.01.012-.015.165-.2.355-.38.555-.573.136-.13.275-.266.411-.409.313-.326.478-.706.478-1.095 0-.393-.168-.77-.487-1.086l-1.738-1.744zm1.133 3.333c-.003 0-.003.003 0 0-.123.133-.25.253-.386.386a8.329 8.329 0 0 0-.611.634c-.32.341-.697.503-1.19.503-.048 0-.099 0-.146-.003-.94-.06-1.814-.428-2.47-.741a14.064 14.064 0 0 1-4.672-3.66c-1.08-1.3-1.802-2.504-2.28-3.796C.94 5.16.831 4.546.88 3.967c.031-.37.174-.678.436-.94l1.08-1.08c.155-.146.32-.225.481-.225.2 0 .361.12.462.222l.01.01c.193.18.377.366.57.566.098.101.2.202.3.307l.865.864c.335.336.335.646 0 .982-.092.091-.18.183-.272.272-.266.272-.52.525-.795.772-.006.007-.013.01-.016.016-.272.272-.222.538-.165.719l.01.028c.225.545.541 1.058 1.023 1.669l.003.003c.873 1.076 1.795 1.915 2.811 2.558.13.082.263.149.39.212.113.057.221.11.313.168.012.006.025.016.038.022a.682.682 0 0 0 .313.079c.263 0 .428-.165.481-.218L10.3 9.89c.108-.108.279-.238.478-.238.197 0 .358.124.456.232l.006.006 1.745 1.744c.326.323.326.656.003.991z" fill="#55307E"/></svg>