<svg width="146" height="74" fill="none" xmlns="http://www.w3.org/2000/svg"><path d="M32.728 6.331a21.399 21.399 0 0 0-3.435 5.224l-7.137 15.289h-.127a22.729 22.729 0 0 0-.414 45.4c1.797.107 3.602.004 5.375-.31a22.71 22.71 0 0 0 12.065-6.3 22.299 22.299 0 0 0 3.294-4.162l.056-.092h.106l.4-.027h.016c3.052-.263 10.496-1.073 13.682-2.887a4.104 4.104 0 0 0 2.214-3.663v-.867l.914-.11a3.035 3.035 0 0 0 2.314-4.946 3.05 3.05 0 0 0-1.938-1.092l-1.315-.235-.02-.149a4.26 4.26 0 0 0-.344-1.159.713.713 0 0 0-.036-.068c-.056-.097-.24-.415-.36-.59a2.803 2.803 0 0 0-.541-.598 16.88 16.88 0 0 0-1.02-.781l-.046-.032c-2.695-1.822-7.017-3.49-10.158-4.56a85.467 85.467 0 0 0-3.335-1.072l-.081-.025-.042-.072a27.839 27.839 0 0 0-1.227-2.007l-.064-.095.085-.187 9.401-20.266a1.037 1.037 0 0 0-.155-1.125.966.966 0 0 0-.991-.287 12.58 12.58 0 0 0-2.913 1.228l-.068.041-.096.056c-.273.166-.516.32-.74.473a14.48 14.48 0 0 0-.29.207c-.29.207-.572.437-.842.67l-.267.236a13.888 13.888 0 0 0-3.188 4.353l-.805 1.742c-.586 1.266-2.657 5.474-3.066 6.306a.802.802 0 0 1-.155.22c-.699.684-1.625.702-2.753.06l-.064-.038a2.18 2.18 0 0 1-.579-.514l-.062-.08c-.35-.492-.55-1.172-.589-2.024a7.595 7.595 0 0 1 0-.83c.12-1.958.91-4.041 1-4.272l3.252-6.967L43.817 2.08a1.316 1.316 0 0 0-.17-1.412 1.213 1.213 0 0 0-.935-.438c-.116 0-.23.016-.342.046a20.23 20.23 0 0 0-9.642 6.055z" fill="#fff"/><path d="M89.933 42.403c-2.531 0-4.836-1.658-4.921-4.274-.141-3.431 2.137-5.034 5.26-5.034 1.01 0 2.163.197 3.036.76v-.415c0-1.377-1.884-1.547-2.925-1.547-1.323 0-2.587.141-3.731.732l-.564-3.402c1.434-.649 3.317-.985 5.147-.985 3.684 0 6.75 1.294 6.75 5.343v4.353c0 1.011 0 1.575 1.123 1.575v2.614c-1.94.45-4.498.705-4.807-1.855-.76 1.573-2.757 2.135-4.368 2.135zm3.346-5.624a3.525 3.525 0 0 0-2.137-.622c-.985.085-1.659.622-1.462 1.632.085.646.622.955 1.265.955.985 0 2.334-.532 2.334-1.687v-.278zm18.377-1.971a3.532 3.532 0 0 1 2.446 3.375c0 3.627-3.148 3.992-5.906 3.992h-6.633V28.508h5.626c2.614 0 6.271.114 6.271 3.731-.004 1.022-.595 2.23-1.804 2.569zm-4.191-1.124c.646 0 1.322-.114 1.322-.9 0-.845-.647-.957-1.322-.957h-1.294v1.865l1.294-.008zm.226 5.004c.702 0 1.772 0 1.772-1.036 0-1.037-.985-1.153-1.772-1.153h-1.52v2.194l1.52-.005zm13.219 3.715c-2.531 0-4.836-1.658-4.921-4.274-.143-3.437 2.137-5.034 5.259-5.034 1.014 0 2.166.197 3.037.76v-.415c0-1.377-1.884-1.547-2.925-1.547-1.321 0-2.587.141-3.731.732l-.562-3.402c1.434-.649 3.317-.985 5.145-.985 3.684 0 6.75 1.294 6.75 5.343v4.353c0 1.011 0 1.575 1.125 1.575v2.614c-1.94.45-4.5.705-4.809-1.855-.767 1.573-2.765 2.135-4.368 2.135zm3.348-5.624a3.536 3.536 0 0 0-2.137-.622c-.985.085-1.659.622-1.464 1.632.085.646.622.955 1.267.955.982 0 2.334-.532 2.334-1.687v-.278zm9.48 5.401h-1.208V28.596h4.612v5.821l7.479-5.877H146v13.616h-4.612v-6.012l-7.65 6.034zm1.491-19.236c.085 2.925 1.716 4.445 4.527 4.445 2.902 0 4.472-1.52 4.586-4.445-.902-.112-1.773-.224-2.695-.28-.168 1.097-.844 1.435-1.941 1.435-1.096 0-1.714-.48-1.772-1.435l-2.705.28zM90.14 61.974c-2.53 0-4.836-1.658-4.92-4.274-.142-3.431 2.136-5.034 5.258-5.034 1.014 0 2.167.197 3.037.759v-.415c0-1.378-1.884-1.546-2.925-1.546-1.32 0-2.587.14-3.731.73l-.57-3.409c1.434-.646 3.317-.984 5.145-.984 3.686 0 6.75 1.293 6.75 5.344v4.353c0 1.014 0 1.576 1.125 1.576v2.616c-1.94.45-4.5.703-4.809-1.866-.759 1.588-2.757 2.15-4.36 2.15zm3.348-5.624a3.535 3.535 0 0 0-2.137-.622c-.985.085-1.658.622-1.463 1.631.084.647.621.956 1.266.956.985 0 2.334-.535 2.334-1.687v-.278zm15.695 2.62l-2.84-2.446v5.146h-4.583V48.168h1.405l6.219 5.624 6.24-5.624h1.406v13.497h-4.584v-5.14l-2.902 2.446h-.361zm15.37 3.004c-2.532 0-4.837-1.658-4.922-4.274-.141-3.431 2.137-5.034 5.259-5.034 1.014 0 2.167.197 3.037.759v-.415c0-1.378-1.884-1.546-2.925-1.546-1.32 0-2.587.14-3.731.73l-.58-3.409c1.434-.646 3.316-.984 5.145-.984 3.684 0 6.75 1.293 6.75 5.344v4.353c0 1.014 0 1.576 1.125 1.576v2.616c-1.94.45-4.5.703-4.809-1.866-.759 1.588-2.755 2.15-4.349 2.15zm3.347-5.624a3.531 3.531 0 0 0-2.137-.622c-.984.085-1.658.622-1.463 1.631.085.647.622.956 1.266.956.983 0 2.334-.535 2.334-1.687v-.278z" fill="#54307E"/><path d="M21.34 36.117a17.074 17.074 0 0 1 5.463-3.11l.367-.118a17.158 17.158 0 0 1 2.711-.632l.31-.046.19.247a3.682 3.682 0 0 0 3.4 1.411l.176-.033.394-.068.16.325a7.136 7.136 0 0 0 5.957 3.189h.228c-1.967-3.394-4.411-5.906-6.921-7.165a6.003 6.003 0 0 1-.344-.176l-.143-.083-.11-.066a3.442 3.442 0 0 1-.848-.77l-.16-.207V28.8a5.058 5.058 0 0 1-.765-2.606c-.014-.325-.01-.65.01-.974.137-2.248.993-4.434 1.095-4.685v-.019l.01-.019 3.257-6.98L41.955.25V.23a18.946 18.946 0 0 0-8.989 5.685 20.235 20.235 0 0 0-3.232 4.915l-7.206 15.438v.012l-.08.16a10.4 10.4 0 0 1-3.76 4.316l-.022.014c-.08.05-.139.081-.168.098-.773.454-1.544.945-2.292 1.461l-.106.073A38.602 38.602 0 0 0 1.26 52.62c1.525 7.44 6.647 14.772 13.803 17.241l.195-20.635a17.134 17.134 0 0 1 6.076-13.101l.007-.008z" fill="#92E4CA"/><path d="M38.624 33.011c.346.388.746.991 1.076 1.416l4.921-10.601 4.266-9.213a12.05 12.05 0 0 0-6.982 6.383L38.628 28.1l-.732 1.244-.044.05c-.33.386-1.22 1.513-1.633 1.704.792.618 1.66 1.082 2.405 1.913zm-23.255-1.914l.192-.13a.39.39 0 0 1 .048-.033l.118-.081.156-.104.12-.079.153-.101.125-.081.153-.098.124-.08.154-.098.122-.076.162-.102.118-.073.176-.107.102-.06.278-.166.072-.05.098-.052.058-.033h.014a8.686 8.686 0 0 0 2.579-2.579A21.408 21.408 0 0 0 .828 48.28c0 .346 0 .69.025 1.036a39.987 39.987 0 0 1 14.511-18.218h.005zm14.525 34.982a18.24 18.24 0 0 0-2.264 2.979 21.442 21.442 0 0 0 9.808-5.604 21.426 21.426 0 0 0 2.43-2.888c-.572.11-1.138.248-1.696.415a18.367 18.367 0 0 0-8.278 5.098z" fill="#A76BDD"/><path d="M55.842 48.231l-1.517-.309a.263.263 0 0 1-.145-.433 1.184 1.184 0 0 1 1.965.398.265.265 0 0 1-.303.344zm-28.435-9.08a6.22 6.22 0 0 1 3.078-.477 6.426 6.426 0 0 1 3.89 1.89s.486.28.684.082c.2-.2.08-.6-.136-.83l.027.032-.027-.031c-1.283-1.474-2.991-2.372-4.867-2.372a5.996 5.996 0 0 0-3.056.85h-.029l.038-.023c-.226.129-.807.61-.554.865.342.342.956 0 .956 0m43.826 5.711v-2.695h7.67v2.695h4.05l.168-6.383h-1.772v-9.871H70.654l-1.126 6.779c-.309 1.799-.14 3.064-2.305 3.093h-.17l.141 6.382h4.043zm2.784-8.706l.45-3.601h2.28v5.935h-3.61c.598-.516.766-1.586.88-2.334zm.167 20.111l.31-3.854h3.938v9.329h4.695v-13.56H70.364l-.871 7.9c-.17 1.802-.367 2.42-2.39 2.223l-.114 3.43c5.174.71 6.774-.248 7.2-5.468z" fill="#54307E"/><path d="M34.198 29.374c-.363-.46-.568-1.13-.608-1.986a7.226 7.226 0 0 1 0-.816c.119-1.934.906-4.003.987-4.21l3.253-6.95 6.18-13.267a1.516 1.516 0 0 0-.208-1.631 1.427 1.427 0 0 0-1.49-.458 20.417 20.417 0 0 0-9.743 6.142 21.612 21.612 0 0 0-3.47 5.274l-7.084 15.174a22.936 22.936 0 0 0 .962 45.855 22.872 22.872 0 0 0 14.654-5.29 22.998 22.998 0 0 0 1.559-1.42 22.423 22.423 0 0 0 3.317-4.202l.393-.027h.023c3.068-.265 10.546-1.08 13.76-2.914a4.303 4.303 0 0 0 2.348-3.848v-.684l.71-.087a3.24 3.24 0 0 0 .658-6.406h-.017a2.772 2.772 0 0 0-.24-.041l-1.16-.208a4.503 4.503 0 0 0-.352-1.219.871.871 0 0 0-.043-.087s-.234-.39-.371-.597a2.965 2.965 0 0 0-.583-.642 16.38 16.38 0 0 0-1.036-.794l-.04-.027c-2.717-1.835-7.048-3.51-10.211-4.596a91.163 91.163 0 0 0-3.342-1.074 27.301 27.301 0 0 0-1.244-2.019l.038-.08 9.4-20.267a1.244 1.244 0 0 0-.188-1.351 1.175 1.175 0 0 0-1.2-.349 12.901 12.901 0 0 0-3.88 1.825c-.1.068-.198.138-.295.207a13.589 13.589 0 0 0-1.126.922 14.046 14.046 0 0 0-3.242 4.406l-.805 1.739c-.588 1.27-2.655 5.473-3.063 6.302a.572.572 0 0 1-.114.164c-.233.228-.942.92-2.505.029l-.064-.04a1.934 1.934 0 0 1-.518-.462v.01zm4.532.964c.576-1.169 2.498-5.08 3.078-6.335l.802-1.737.137-.284a12.185 12.185 0 0 1 5.197-5.39 11.26 11.26 0 0 1 1.658-.711l-4.28 9.217-4.561 9.832c-.332-.425-.67-.83-1.016-1.221a18.094 18.094 0 0 0-2.31-2.183c.33-.156.63-.366.888-.622.166-.165.303-.356.407-.566zm-21.311-1.513a21.35 21.35 0 0 1 3.781-.653 8.68 8.68 0 0 1-2.579 2.58l-.153.092c-.742.435-1.485.906-2.206 1.397l-.193.13A39.987 39.987 0 0 0 1.56 50.59a21.479 21.479 0 0 1 15.86-21.765zm15.612 1.47a3.444 3.444 0 0 0 1.005.864c.15.085.292.16.433.224 2.513 1.244 4.949 3.773 6.926 7.15h-.228a7.147 7.147 0 0 1-5.064-2.098 7.241 7.241 0 0 1-.83-.989.754.754 0 0 0-.804-.321c-.111.01-.352.033-.47.033a3.67 3.67 0 0 1-2.84-1.341.796.796 0 0 0-.736-.278 16.97 16.97 0 0 0-2.556.607l-.367.119a17.159 17.159 0 0 0-11.54 16.219v19.341A21.396 21.396 0 0 1 1.962 53.877a38.608 38.608 0 0 1 14.84-20.218l.107-.072a38 38 0 0 1 2.307-1.472l.141-.083.033-.019a10.398 10.398 0 0 0 3.769-4.322l.08-.16v-.012l7.21-15.423a20.232 20.232 0 0 1 3.233-4.915 18.93 18.93 0 0 1 8.986-5.693v.019l-6.177 13.267-3.25 6.965a.445.445 0 0 0-.026.058c-.1.25-.96 2.488-1.092 4.68a8.79 8.79 0 0 0 0 .974c.056 1.173.365 2.127.924 2.835l-.016.009zm5.13 34.426c-.462.465-.953.91-1.45 1.33a21.408 21.408 0 0 1-8.357 4.274 18.405 18.405 0 0 1 10.547-8.085 17.39 17.39 0 0 1 1.696-.415 21.283 21.283 0 0 1-2.452 2.903l.016-.007zm22.08-12.264a1.75 1.75 0 0 1-.52.081.678.678 0 0 0-.114 0h-.02a.387.387 0 0 0-.098 0s-.504.067-1.366.166l-.243.027-.473.052c-1.658.18-3.961.394-6.32.502a60.29 60.29 0 0 1-1.856.058c-.534.01-1.047.01-1.527 0h-.674a9.93 9.93 0 0 1-1.632-.106c-.19-.027-.344-.064-.522-.106l-.085-.02a3.539 3.539 0 0 1 .104-6.906c.404-.08.82-.093 1.229-.035a.531.531 0 0 0 .153-1.049 4.598 4.598 0 0 0-1.731 9.022l.083.018c.205.053.413.095.622.127.588.086 1.182.125 1.777.116h2.23c.595-.01 1.23-.031 1.885-.06 2.407-.11 4.755-.33 6.426-.51v.966a2.827 2.827 0 0 1-1.536 2.52l-.04.022c-3.03 1.737-10.816 2.526-13.149 2.728a14.24 14.24 0 0 0-.773.062h-.052a19.891 19.891 0 0 0-15.595 10.6 21.6 21.6 0 0 1-4.747.233 21.434 21.434 0 0 1-4.66-.798V50.49a16.097 16.097 0 0 1 11.171-15.34l.094-.031a16.094 16.094 0 0 1 2.155-.506 4.735 4.735 0 0 0 3.56 1.606c.137 0 .35-.016.5-.029.257.357.543.692.853 1.004a8.248 8.248 0 0 0 6.696 2.36l.05.032c.06.038.126.068.195.087.162.048 1.631.475 3.564 1.138 3.092 1.062 7.32 2.695 9.898 4.447l.04.027c.207.145.524.387.889.688.112.095.21.205.29.328.091.136.247.402.303.497.168.372.257.775.263 1.184l-.048.638 2.403.427h.044l.122.023h.019a1.757 1.757 0 0 1 .14 3.39l.023-.003z" fill="#54307E"/><path d="M29.863 40.893a6.35 6.35 0 0 0-3.136-.487.276.276 0 1 0 0 .551h.029a8.036 8.036 0 0 1 2.858.415l.104.037a.26.26 0 0 0 .284-.07.27.27 0 0 0 .064-.179.274.274 0 0 0-.203-.267z" fill="#54307E"/></svg>